<?xml version="1.0" encoding="utf-8"?>
<!-- Generator: Adobe Illustrator 16.0.0, SVG Export Plug-In . SVG Version: 6.00 Build 0)  -->
<!DOCTYPE svg PUBLIC "-//W3C//DTD SVG 1.1//EN" "http://www.w3.org/Graphics/SVG/1.1/DTD/svg11.dtd">
<svg version="1.1" id="Layer_1" xmlns="http://www.w3.org/2000/svg" xmlns:xlink="http://www.w3.org/1999/xlink" x="0px" y="0px"
	 width="212.587px" height="189.773px" viewBox="0 0 212.587 189.773" enable-background="new 0 0 212.587 189.773"
	 xml:space="preserve">
<g>
	<g>
		<path fill="#6B6260" d="M177.876,21.525c0.604,0.175,1.2,0.371,1.795,0.613c0.377,0.047,0.755,0.111,1.123,0.226
			c1.621,0.498,2.302,1.707,2.896,3.098c0.135,0.28,0.246,0.563,0.351,0.851c0.384,0.853,1.497,1.44,2.405,1.165
			c0.967-0.833,1.977-1.577,3.077-2.177c0.524-0.405,1.073-0.759,1.704-0.957c0.546-0.16,1.08-0.249,1.607-0.312
			c0.523-0.112,1.058-0.195,1.613-0.239c3.425-0.229,7.833,1.469,10.382-1.447c-0.071,0.011-0.14,0.019-0.21,0.046
			c-3.234,1.392-7.355-1.532-10.647-1.694c-1.877-0.091-3.888-0.017-5.607,0.852c-0.868,0.441-1.518,1.02-2.271,1.641
			c-0.056,0.064-0.134,0.117-0.188,0.203c-1.492-2.306-3.531-3.855-6.679-4.068c-2.08-0.136-4.105-0.31-6.094-1.023
			c-1.42-0.514-2.851-1.334-4.397-1.224c-0.038,0-0.069,0.008-0.097,0.008C170.715,19.918,174.52,20.563,177.876,21.525z"/>
		<path fill="#6B6260" d="M161.089,29.046c0.351,0.119,0.705,0.258,1.044,0.409c0.225,0.043,0.439,0.097,0.649,0.162
			c0.954,0.346,1.31,1.09,1.622,1.922c0.067,0.161,0.133,0.342,0.179,0.515c0.2,0.519,0.848,0.886,1.392,0.754
			c0.586-0.468,1.217-0.875,1.874-1.192c0.314-0.224,0.653-0.411,1.036-0.512c0.334-0.073,0.644-0.128,0.955-0.139
			c0.319-0.055,0.63-0.085,0.966-0.098c2.027-0.039,4.578,1.104,6.161-0.544c-0.042,0-0.08,0-0.114,0.014
			c-1.953,0.732-4.302-1.103-6.239-1.31c-1.111-0.109-2.293-0.109-3.335,0.338c-0.521,0.225-0.928,0.559-1.39,0.904
			c-0.043,0.033-0.074,0.068-0.113,0.115c-0.82-1.405-1.98-2.386-3.839-2.599c-1.212-0.15-2.395-0.306-3.555-0.788
			c-0.826-0.345-1.634-0.866-2.562-0.854c-0.017,0-0.042,0-0.064,0.013C156.914,27.885,159.132,28.363,161.089,29.046z"/>
		<path fill="#6B6260" d="M78.831,54.616v6.121h-3.233v4.354h3.233v12.026c0,3.75,2.586,6.422,6.293,6.422
			c1.681,0,3.491-0.69,4.741-1.767l-1.509-3.535c-0.474,0.474-1.293,0.819-2.198,0.819c-1.25,0-2.198-1.078-2.198-2.586V65.09h5.043
			v-4.354H83.96v-6.121H78.831z"/>
		<path fill="#6B6260" d="M92.192,52.892v30.13h5.259V69.53c0-2.673,2.457-4.828,5.431-4.828c2.759,0,4.698,2.155,4.698,5.172
			v13.147h5.086V68.84c0-5.043-3.404-8.621-8.275-8.621c-2.974,0-5.604,1.422-6.939,3.578V52.892H92.192z"/>
		<path fill="#6B6260" d="M126.762,60.22c-6.337,0-11.337,4.914-11.337,11.595c0,6.854,5.259,11.725,11.638,11.725
			c3.233,0,7.112-1.379,9.052-3.448l-3.319-3.449c-1.249,1.293-3.707,2.242-5.775,2.242c-3.189,0-5.518-2.155-6.164-5.215h16.811
			C137.666,65.435,133.658,60.22,126.762,60.22z M120.899,69.66c0.775-2.932,3.146-4.785,6.077-4.785
			c3.146,0,5.043,1.982,5.646,4.785H120.899z"/>
		<path fill="#6B6260" d="M63.313,122.917v-13.404c0-5.648-3.664-9.398-9.569-9.398c-2.802,0-5.733,0.777-8.879,2.328l1.811,3.664
			c1.896-0.947,3.922-1.682,6.034-1.682c4.052,0,5.475,2.5,5.475,5.088v0.602c-2.026-0.775-4.225-1.205-6.25-1.205
			c-5,0-9.095,3.016-9.095,7.412c0,4.311,3.578,7.113,8.319,7.113c2.586,0,5.388-1.121,7.026-3.189v2.672H63.313z M52.322,119.598
			c-2.5,0-4.354-1.336-4.354-3.449c0-2.111,2.112-3.578,4.741-3.578c1.983,0,3.836,0.303,5.475,0.863v2.5
			C57.581,118.305,54.865,119.598,52.322,119.598z"/>
		<path fill="#6B6260" d="M67.192,100.631v14.182c0,5.043,3.405,8.621,8.276,8.621c2.931,0,5.517-1.422,6.897-3.492v2.975h5.259
			v-22.285h-5.259v14.096c-0.345,2.371-2.629,4.225-5.388,4.225s-4.698-2.156-4.698-5.174v-13.146H67.192z"/>
		<path fill="#6B6260" d="M100.598,118.952c-1.25,0-2.198-1.078-2.198-2.588v-11.379h5.043v-4.354h-5.043V94.51H93.27v6.121h-3.233
			v4.354h3.233v12.025c0,3.752,2.586,6.424,6.293,6.424c1.681,0,3.492-0.689,4.742-1.768l-1.509-3.535
			C102.321,118.606,101.503,118.952,100.598,118.952z"/>
		<path fill="#6B6260" d="M109.348,91.277c-1.682,0-3.018,1.379-3.018,2.974c0,1.594,1.336,3.019,3.018,3.019
			c1.637,0,2.974-1.424,2.974-3.019C112.321,92.657,110.984,91.277,109.348,91.277z"/>
		<rect x="106.674" y="100.631" fill="#6B6260" width="5.259" height="22.285"/>
		<path fill="#6B6260" d="M124.346,118.995c-2.801,0-5.301-1.035-7.456-2.586l-2.37,3.662c2.672,2.156,6.336,3.363,9.74,3.363
			c5.217,0,8.75-2.76,8.75-7.025c0-4.656-4.051-5.949-7.801-6.984c-3.405-0.99-4.569-1.422-4.569-2.844
			c0-1.25,1.423-1.984,3.276-1.984c1.939,0,4.225,0.691,6.336,2.027l2.198-3.836c-2.414-1.596-5.474-2.674-8.534-2.674
			c-4.957,0-8.406,2.846-8.406,7.027c0.043,3.965,3.104,5.344,7.932,6.594c2.543,0.689,4.482,1.25,4.482,2.975
			C127.924,118.088,126.459,118.995,124.346,118.995z"/>
		<path fill="#6B6260" d="M161.589,100.114c-3.319,0-6.121,1.639-7.198,4.225c-1.379-2.629-3.966-4.225-7.112-4.225
			c-2.802,0-5.087,1.379-6.207,3.535v-3.018h-5.259v22.285h5.259v-13.664c0-2.715,2.026-4.656,4.87-4.656
			c2.587,0,4.354,2.07,4.354,5.002v13.318h5.13v-13.664c0-2.715,1.982-4.656,4.87-4.656c2.544,0,4.312,2.07,4.312,5.002v13.318
			h5.129v-14.182C169.735,103.692,166.244,100.114,161.589,100.114z"/>
		<path fill="#6B6260" d="M70.813,149.319c-3.405-0.992-4.569-1.422-4.569-2.846c0-1.25,1.422-1.982,3.276-1.982
			c1.94,0,4.224,0.689,6.336,2.027l2.199-3.838c-2.414-1.594-5.475-2.672-8.535-2.672c-4.957,0-8.405,2.846-8.405,7.025
			c0.043,3.967,3.104,5.346,7.931,6.596c2.543,0.689,4.483,1.25,4.483,2.975c0,1.379-1.466,2.283-3.578,2.283
			c-2.802,0-5.302-1.033-7.457-2.586l-2.371,3.664c2.673,2.156,6.336,3.363,9.742,3.363c5.216,0,8.75-2.76,8.75-7.027
			C78.615,151.647,74.563,150.354,70.813,149.319z"/>
		<path fill="#6B6260" d="M93.615,140.008c-2.975,0-5.604,1.422-6.94,3.578V132.68h-5.258v30.131h5.258v-13.492
			c0-2.672,2.457-4.828,5.431-4.828c2.759,0,4.698,2.156,4.698,5.172v13.148h5.086v-14.182
			C101.891,143.586,98.486,140.008,93.615,140.008z"/>
		<path fill="#6B6260" d="M115.985,140.008c-6.337,0-11.336,4.914-11.336,11.596c0,6.854,5.259,11.725,11.638,11.725
			c3.232,0,7.112-1.381,9.053-3.449l-3.319-3.447c-1.25,1.291-3.707,2.24-5.776,2.24c-3.189,0-5.518-2.154-6.164-5.215h16.811
			C126.891,145.223,122.882,140.008,115.985,140.008z M110.123,149.448c0.776-2.93,3.146-4.783,6.078-4.783
			c3.146,0,5.043,1.982,5.646,4.783H110.123z"/>
		<path fill="#6B6260" d="M146.676,143.973c-1.768-2.498-4.44-3.965-7.716-3.965c-5.905,0-10.216,4.828-10.216,11.639
			c0,6.854,4.311,11.682,10.216,11.682c3.275,0,5.948-1.467,7.716-3.967v3.449h5.258V132.68h-5.258V143.973z M140.382,158.844
			c-3.75,0-6.423-3.016-6.423-7.197s2.673-7.156,6.423-7.156c3.707,0,6.294,2.975,6.294,7.156S144.089,158.844,140.382,158.844z"/>
		<path fill="#6B6260" d="M205.127,90.622L108.506,6.939c-0.58-0.503-1.326-0.78-2.099-0.78l-0.088,0.001L106.18,6.16
			c-0.773,0-1.519,0.277-2.1,0.78L7.46,90.622c-0.649,0.562-1.04,1.343-1.102,2.199c-0.061,0.856,0.214,1.685,0.776,2.333
			c0.611,0.705,1.497,1.11,2.431,1.11c0.771,0,1.518-0.279,2.102-0.784l13.459-11.658v95.781c0,1.771,1.441,3.213,3.214,3.213
			c1.772,0,3.213-1.441,3.213-3.213V78.256l74.738-64.73l74.739,64.732v102.144c0,1.771,1.442,3.213,3.214,3.213
			s3.213-1.441,3.213-3.213V83.823l13.46,11.658c0.584,0.504,1.33,0.784,2.102,0.784l0,0c0.935,0,1.82-0.405,2.431-1.11
			c0.563-0.648,0.838-1.477,0.776-2.333S205.775,91.184,205.127,90.622z"/>
	</g>
</g>
</svg>
